# xmcd
#
# Track frame offsets: 
#        150
#        16017
#        30332
#        44358
#        58097
#        70858
#        85093
#        103766
#        115137
#        129438
#        143288
#        154719
#        167997
#        185784
#        199863
#        211799
#        223190
#        235185
#        244789
#        250185
#        261850
#        278054
#
# Disc length: 3959 seconds
#
# Revision: 5
# Processed by: cddbd v1.5.2PL0 Copyright (c) Steve Scherf et al.
# Submitted via: ExactAudioCopy v0.95a5
#
DISCID=330f7516
DTITLE=無非文化 - 霹靂英雄劇集原聲帶【霹靂英雄榜之爭王記】
DYEAR=2001
DGENRE=Soundtrack
TTITLE0=爭王記片頭曲
TTITLE1=東陵少主一(梅林初現)
TTITLE2=東陵少主之貳
TTITLE3=柳依依
TTITLE4=不二刀
TTITLE5=御筆丹青悅蘭芳
TTITLE6=女公子路光明(插曲版)
TTITLE7=病劍叟
TTITLE8=流浪者
TTITLE9=非凡公子
TTITLE10=穿雲豹\
TTITLE11=萬里雲梟
TTITLE12=風簷春秋(經天子)
TTITLE13=思緒紛飛
TTITLE14=七絕招魂
TTITLE15=退隱
TTITLE16=化干戈
TTITLE17=中原不敗(音樂版)
TTITLE18=玩耍
TTITLE19=掩光嶺
TTITLE20=生死未卜
TTITLE21=女公子路光明(爭王記片尾版)
EXTD=YEAR: 2001
EXTT0=
EXTT1=
EXTT2=
EXTT3=
EXTT4=
EXTT5=
EXTT6=
EXTT7=
EXTT8=
EXTT9=
EXTT10=
EXTT11=
EXTT12=
EXTT13=
EXTT14=
EXTT15=
EXTT16=
EXTT17=
EXTT18=
EXTT19=
EXTT20=
EXTT21=
PLAYORDER=
